<svg version="1.1" id="Слой_1" xmlns="http://www.w3.org/2000/svg" xmlns:xlink="http://www.w3.org/1999/xlink" x="0px" y="0px"
	 viewBox="0 0 48 48" style="enable-background:new 0 0 48 48;" xml:space="preserve">
<style type="text/css">
	.st0{fill:#0D5C63;}
</style>
<path class="st0" d="M29.1,13.6h12v3.4h-12V13.6z M29.1,22.2h12v3.4h-12V22.2z M29.1,30.9h12v3.4h-12V30.9z M44.6,5H3.4
	C2.5,5,1.7,5.4,1,6C0.4,6.7,0,7.5,0,8.5v31c0,0.9,0.4,1.8,1,2.4c0.6,0.6,1.5,1,2.4,1h41.1c0.9,0,1.8-0.4,2.4-1c0.6-0.6,1-1.5,1-2.4
	v-31c0-0.9-0.4-1.8-1-2.4C46.3,5.4,45.5,5,44.6,5z M3.4,8.5h18.9v31H3.4V8.5z M25.7,39.5v-31h18.9l0,31H25.7z"/>
</svg>
